# xmcd
#
# Track frame offsets: 
#        150
#        18600
#        33300
#        49800
#        67500
#        83850
#        105000
#        120225
#        135900
#        151950
#        169650
#        184575
#        203400
#        219150
#        236475
#        253875
#        270000
#        286650
#        307425
#
# Disc length: 4324 seconds
#
# Revision: 0
# Processed by: cddbd v1.5.1PL0 Copyright (c) Steve Scherf et al.
# Submitted via: ExactAudioCopy v0.95a3
#
DISCID=e610e213
DTITLE=Филипп Киркоров - Я Не Рафаэль
DYEAR=1994
DGENRE=Pop
TTITLE0=Я Не Рафаэль
TTITLE1=Сумашедший Вечер
TTITLE2=Там, Где Идёт Игра
TTITLE3=Ты Скажи Мен Вишня
TTITLE4=Примадонна
TTITLE5=Я Поднимаю Свой Вокал
TTITLE6=Марина
TTITLE7=Кто Такой Филипп Киркоров
TTITLE8=Ночь
TTITLE9=Грустный Ангел
TTITLE10=Между Летом И Зимой
TTITLE11=Ты Не Одна
TTITLE12=С Глаз Долой, Из Сердца Вон...
TTITLE13=Страна Моя, Тебе Не До Концертов
TTITLE14=Лишь Позавчера
TTITLE15=Митрофан
TTITLE16=Песня О Себе
TTITLE17=Пропади Всё Пропадом
TTITLE18=Пташечка Моя
EXTD=
EXTT0=
EXTT1=
EXTT2=
EXTT3=
EXTT4=
EXTT5=
EXTT6=
EXTT7=
EXTT8=
EXTT9=
EXTT10=
EXTT11=
EXTT12=
EXTT13=
EXTT14=
EXTT15=
EXTT16=
EXTT17=
EXTT18=
PLAYORDER=
